<svg xmlns="http://www.w3.org/2000/svg" version="1.1" xmlns:xlink="http://www.w3.org/1999/xlink" width="1000" height="1000"><style>
    #light-icon {
      display: inline;
    }
    #dark-icon {
      display: none;
    }

    @media (prefers-color-scheme: dark) {
      #light-icon {
        display: none;
      }
      #dark-icon {
        display: inline;
      }
    }
  </style><g id="light-icon"><svg xmlns="http://www.w3.org/2000/svg" version="1.1" xmlns:xlink="http://www.w3.org/1999/xlink" width="1000" height="1000"><g clip-path="url(#SvgjsClipPath1384)"><rect width="1000" height="1000" fill="#fdfdfd"></rect><g transform="matrix(0.48828125,0,0,0.48828125,0,0)"><svg xmlns="http://www.w3.org/2000/svg" version="1.1" xmlns:xlink="http://www.w3.org/1999/xlink" width="2048" height="2048"><svg class="img-fluid" id="outputsvg" xmlns="http://www.w3.org/2000/svg" style="transform: matrix(1, 0, 0, 1, 0, 0); transform-origin: 50% 50%; cursor: move; transition: transform 200ms ease-in-out;" width="2048" height="2048" viewBox="0 0 20480 20480"><g id="l670uSCheDG7Q8lK4qsR0Hd" fill="rgb(0,0,0)" style="transform: none;"><g style="transform: none;"><path id="pWyJSwPHB" d="M9845 20470 c-11 -5 -50 -9 -86 -9 -152 -2 -588 -54 -842 -102 -1287 -240 -2379 -762 -3377 -1615 -152 -130 -571 -549 -693 -694 -480 -570 -824 -1136 -1078 -1778 -377 -951 -509 -1967 -398 -3067 24 -249 70 -522 137 -834 6 -25 20 -43 52 -66 152 -106 1865 -1244 1886 -1252 7 -2 -20 78 -58 179 -227 599 -338 1205 -338 1845 0 1122 402 2261 1111 3143 815 1015 1966 1702 3209 1915 1101 188 2196 21 3205 -490 709 -359 1338 -888 1820 -1530 522 -695 853 -1487 970 -2320 75 -535 72 -1030 -10 -1560 -55 -354 -179 -806 -308 -1122 -14 -35 -24 -63 -22 -63 2 0 132 84 287 187 986 650 1601 1063 1634 1097 33 33 106 432 149 811 61 554 58 1117 -10 1650 -138 1075 -564 2108 -1224 2964 -1015 1319 -2514 2246 -4166 2575 -312 63 -544 93 -1010 132 -120 10 -819 13 -840 4z"></path><path id="p4oAPkgF8" d="M10095 15484 c-400 -29 -528 -48 -780 -111 -324 -81 -587 -182 -868 -333 -993 -534 -1649 -1454 -1801 -2525 -66 -465 -28 -914 116 -1355 193 -593 573 -1117 1093 -1510 471 -355 1041 -606 1675 -735 96 -19 180 -38 185 -40 26 -13 -160 10 -335 41 -631 112 -1218 320 -1908 675 -236 121 -294 153 -622 342 -740 426 -1422 856 -2547 1604 -375 249 -684 453 -687 453 -2 0 7 -37 21 -82 248 -814 642 -1638 1093 -2289 151 -217 264 -408 389 -660 288 -576 441 -1132 491 -1782 7 -87 10 -649 10 -1550 0 -884 3 -1451 10 -1517 73 -758 321 -1450 741 -2070 273 -402 653 -801 1045 -1097 473 -356 944 -591 1520 -758 159 -46 530 -124 684 -144 1189 -153 2381 142 3344 829 270 192 591 485 800 730 596 696 939 1470 1063 2390 14 110 17 309 23 1695 7 1692 5 1607 60 1940 44 257 121 557 204 785 158 433 335 775 631 1215 360 537 625 1039 865 1640 82 205 264 729 251 723 -3 -2 -215 -143 -471 -313 -552 -368 -1076 -708 -1715 -1113 -653 -413 -1259 -763 -1750 -1011 -700 -354 -1293 -551 -1987 -661 -176 -28 -219 -22 -63 9 471 93 941 262 1324 477 600 336 1048 795 1336 1369 220 438 317 851 317 1350 0 503 -113 975 -342 1430 -179 355 -360 605 -640 886 -358 359 -797 645 -1275 832 -286 111 -661 199 -970 226 -133 12 -453 21 -530 15z m340 -1344 c883 -63 1654 -578 2026 -1355 378 -789 284 -1750 -250 -2557 -117 -177 -208 -287 -385 -464 -347 -348 -709 -574 -1184 -740 -164 -58 -190 -59 -62 -4 178 77 358 183 510 299 110 84 294 263 380 371 219 275 375 612 446 960 36 180 45 479 20 655 -82 561 -382 1018 -857 1303 -481 289 -1100 305 -1608 41 -164 -85 -288 -176 -426 -314 -349 -349 -525 -788 -525 -1310 0 -728 376 -1396 1025 -1820 83 -55 285 -159 368 -190 66 -25 69 -38 5 -19 -389 115 -754 311 -1068 573 -118 99 -354 338 -444 451 -247 310 -465 747 -552 1105 -81 335 -95 726 -38 1052 127 734 585 1346 1271 1699 405 208 867 298 1348 264z m-60 -2451 c296 -36 552 -183 737 -423 317 -410 298 -995 -45 -1422 -91 -112 -168 -181 -379 -341 -167 -126 -390 -328 -431 -392 l-16 -24 -81 86 c-99 105 -231 220 -410 357 -294 225 -457 425 -544 668 -52 146 -61 204 -61 397 1 197 12 259 74 421 84 217 272 426 491 547 199 110 435 154 665 126z m175 -3970 c536 -49 1091 -258 1525 -574 374 -272 672 -596 902 -980 137 -228 264 -527 336 -795 48 -176 91 -444 103 -641 l7 -116 -140 -6 c-905 -44 -1705 -381 -2302 -970 -224 -221 -384 -443 -521 -722 -92 -188 -150 -341 -194 -518 l-32 -128 -37 141 c-50 191 -93 304 -192 505 -286 581 -735 1019 -1360 1325 -440 216 -885 331 -1397 362 l-198 12 0 51 c1 75 26 327 45 435 141 826 608 1554 1320 2057 248 175 503 305 794 404 444 151 865 201 1341 158z m2864 -3228 c3 -4 1 -62 -4 -127 -63 -756 -373 -1433 -904 -1969 -548 -553 -1282 -886 -2059 -934 -78 -5 -145 -7 -149 -4 -12 6 -10 345 2 464 64 643 312 1179 750 1620 566 569 1325 895 2210 948 74 4 138 9 142 10 4 0 9 -3 12 -8z m-6033 -16 c538 -51 1060 -223 1489 -490 641 -399 1088 -1013 1244 -1708 50 -222 59 -306 60 -572 l1 -250 -90 3 c-204 7 -425 40 -665 98 -435 107 -870 330 -1232 634 -587 491 -979 1178 -1097 1922 -16 96 -40 320 -41 371 0 12 166 8 331 -8z"></path><path id="p1AkhZGnKz" d="M10175 10646 c-72 -23 -105 -46 -199 -139 -115 -113 -147 -165 -153 -251 -8 -99 22 -155 155 -287 59 -58 123 -114 142 -124 51 -26 159 -32 214 -11 63 24 286 253 311 319 21 56 17 145 -10 198 -25 48 -244 266 -286 283 -53 22 -128 28 -174 12z"></path></g></g></svg></svg></g></g><defs><clipPath id="SvgjsClipPath1384"><rect width="1000" height="1000" x="0" y="0" rx="300" ry="300"></rect></clipPath></defs></svg></g><g id="dark-icon"><svg xmlns="http://www.w3.org/2000/svg" version="1.1" xmlns:xlink="http://www.w3.org/1999/xlink" width="1000" height="1000"><g><g transform="matrix(0.48828125,0,0,0.48828125,0,0)" style="filter: invert(100%)"><svg xmlns="http://www.w3.org/2000/svg" version="1.1" xmlns:xlink="http://www.w3.org/1999/xlink" width="2048" height="2048"><svg class="img-fluid" id="outputsvg" xmlns="http://www.w3.org/2000/svg" style="transform: matrix(1, 0, 0, 1, 0, 0); transform-origin: 50% 50%; cursor: move; transition: transform 200ms ease-in-out;" width="2048" height="2048" viewBox="0 0 20480 20480"><g id="l670uSCheDG7Q8lK4qsR0Hd" fill="rgb(0,0,0)" style="transform: none;"><g style="transform: none;"><path id="pWyJSwPHB" d="M9845 20470 c-11 -5 -50 -9 -86 -9 -152 -2 -588 -54 -842 -102 -1287 -240 -2379 -762 -3377 -1615 -152 -130 -571 -549 -693 -694 -480 -570 -824 -1136 -1078 -1778 -377 -951 -509 -1967 -398 -3067 24 -249 70 -522 137 -834 6 -25 20 -43 52 -66 152 -106 1865 -1244 1886 -1252 7 -2 -20 78 -58 179 -227 599 -338 1205 -338 1845 0 1122 402 2261 1111 3143 815 1015 1966 1702 3209 1915 1101 188 2196 21 3205 -490 709 -359 1338 -888 1820 -1530 522 -695 853 -1487 970 -2320 75 -535 72 -1030 -10 -1560 -55 -354 -179 -806 -308 -1122 -14 -35 -24 -63 -22 -63 2 0 132 84 287 187 986 650 1601 1063 1634 1097 33 33 106 432 149 811 61 554 58 1117 -10 1650 -138 1075 -564 2108 -1224 2964 -1015 1319 -2514 2246 -4166 2575 -312 63 -544 93 -1010 132 -120 10 -819 13 -840 4z"></path><path id="p4oAPkgF8" d="M10095 15484 c-400 -29 -528 -48 -780 -111 -324 -81 -587 -182 -868 -333 -993 -534 -1649 -1454 -1801 -2525 -66 -465 -28 -914 116 -1355 193 -593 573 -1117 1093 -1510 471 -355 1041 -606 1675 -735 96 -19 180 -38 185 -40 26 -13 -160 10 -335 41 -631 112 -1218 320 -1908 675 -236 121 -294 153 -622 342 -740 426 -1422 856 -2547 1604 -375 249 -684 453 -687 453 -2 0 7 -37 21 -82 248 -814 642 -1638 1093 -2289 151 -217 264 -408 389 -660 288 -576 441 -1132 491 -1782 7 -87 10 -649 10 -1550 0 -884 3 -1451 10 -1517 73 -758 321 -1450 741 -2070 273 -402 653 -801 1045 -1097 473 -356 944 -591 1520 -758 159 -46 530 -124 684 -144 1189 -153 2381 142 3344 829 270 192 591 485 800 730 596 696 939 1470 1063 2390 14 110 17 309 23 1695 7 1692 5 1607 60 1940 44 257 121 557 204 785 158 433 335 775 631 1215 360 537 625 1039 865 1640 82 205 264 729 251 723 -3 -2 -215 -143 -471 -313 -552 -368 -1076 -708 -1715 -1113 -653 -413 -1259 -763 -1750 -1011 -700 -354 -1293 -551 -1987 -661 -176 -28 -219 -22 -63 9 471 93 941 262 1324 477 600 336 1048 795 1336 1369 220 438 317 851 317 1350 0 503 -113 975 -342 1430 -179 355 -360 605 -640 886 -358 359 -797 645 -1275 832 -286 111 -661 199 -970 226 -133 12 -453 21 -530 15z m340 -1344 c883 -63 1654 -578 2026 -1355 378 -789 284 -1750 -250 -2557 -117 -177 -208 -287 -385 -464 -347 -348 -709 -574 -1184 -740 -164 -58 -190 -59 -62 -4 178 77 358 183 510 299 110 84 294 263 380 371 219 275 375 612 446 960 36 180 45 479 20 655 -82 561 -382 1018 -857 1303 -481 289 -1100 305 -1608 41 -164 -85 -288 -176 -426 -314 -349 -349 -525 -788 -525 -1310 0 -728 376 -1396 1025 -1820 83 -55 285 -159 368 -190 66 -25 69 -38 5 -19 -389 115 -754 311 -1068 573 -118 99 -354 338 -444 451 -247 310 -465 747 -552 1105 -81 335 -95 726 -38 1052 127 734 585 1346 1271 1699 405 208 867 298 1348 264z m-60 -2451 c296 -36 552 -183 737 -423 317 -410 298 -995 -45 -1422 -91 -112 -168 -181 -379 -341 -167 -126 -390 -328 -431 -392 l-16 -24 -81 86 c-99 105 -231 220 -410 357 -294 225 -457 425 -544 668 -52 146 -61 204 -61 397 1 197 12 259 74 421 84 217 272 426 491 547 199 110 435 154 665 126z m175 -3970 c536 -49 1091 -258 1525 -574 374 -272 672 -596 902 -980 137 -228 264 -527 336 -795 48 -176 91 -444 103 -641 l7 -116 -140 -6 c-905 -44 -1705 -381 -2302 -970 -224 -221 -384 -443 -521 -722 -92 -188 -150 -341 -194 -518 l-32 -128 -37 141 c-50 191 -93 304 -192 505 -286 581 -735 1019 -1360 1325 -440 216 -885 331 -1397 362 l-198 12 0 51 c1 75 26 327 45 435 141 826 608 1554 1320 2057 248 175 503 305 794 404 444 151 865 201 1341 158z m2864 -3228 c3 -4 1 -62 -4 -127 -63 -756 -373 -1433 -904 -1969 -548 -553 -1282 -886 -2059 -934 -78 -5 -145 -7 -149 -4 -12 6 -10 345 2 464 64 643 312 1179 750 1620 566 569 1325 895 2210 948 74 4 138 9 142 10 4 0 9 -3 12 -8z m-6033 -16 c538 -51 1060 -223 1489 -490 641 -399 1088 -1013 1244 -1708 50 -222 59 -306 60 -572 l1 -250 -90 3 c-204 7 -425 40 -665 98 -435 107 -870 330 -1232 634 -587 491 -979 1178 -1097 1922 -16 96 -40 320 -41 371 0 12 166 8 331 -8z"></path><path id="p1AkhZGnKz" d="M10175 10646 c-72 -23 -105 -46 -199 -139 -115 -113 -147 -165 -153 -251 -8 -99 22 -155 155 -287 59 -58 123 -114 142 -124 51 -26 159 -32 214 -11 63 24 286 253 311 319 21 56 17 145 -10 198 -25 48 -244 266 -286 283 -53 22 -128 28 -174 12z"></path></g></g></svg></svg></g></g></svg></g></svg>